<?xml version="1.0" encoding="UTF-8" standalone="no"?>
<!-- Generator: Adobe Illustrator 16.0.0, SVG Export Plug-In . SVG Version: 6.00 Build 0)  -->

<svg
   xmlns:dc="http://purl.org/dc/elements/1.1/"
   xmlns:cc="http://creativecommons.org/ns#"
   xmlns:rdf="http://www.w3.org/1999/02/22-rdf-syntax-ns#"
   xmlns:svg="http://www.w3.org/2000/svg"
   xmlns="http://www.w3.org/2000/svg"
   xmlns:sodipodi="http://sodipodi.sourceforge.net/DTD/sodipodi-0.dtd"
   xmlns:inkscape="http://www.inkscape.org/namespaces/inkscape"
   version="1.1"
   id="Capa_1"
   x="0px"
   y="0px"
   width="55.375px"
   height="55.375px"
   viewBox="0 0 55.375 55.375"
   style="enable-background:new 0 0 55.375 55.375;"
   xml:space="preserve"
   inkscape:version="0.91 r13725"
   sodipodi:docname="hidrus-logo.svg"><metadata
     id="metadata4524"><rdf:RDF><cc:Work
         rdf:about=""><dc:format>image/svg+xml</dc:format><dc:type
           rdf:resource="http://purl.org/dc/dcmitype/StillImage" /><dc:title /></cc:Work></rdf:RDF></metadata><defs
     id="defs4522" /><sodipodi:namedview
     pagecolor="#ffffff"
     bordercolor="#666666"
     borderopacity="1"
     objecttolerance="10"
     gridtolerance="10"
     guidetolerance="10"
     inkscape:pageopacity="0"
     inkscape:pageshadow="2"
     inkscape:window-width="1234"
     inkscape:window-height="755"
     id="namedview4520"
     showgrid="false"
     inkscape:zoom="15.331828"
     inkscape:cx="35.540068"
     inkscape:cy="30.013982"
     inkscape:window-x="46"
     inkscape:window-y="0"
     inkscape:window-maximized="1"
     inkscape:current-layer="Capa_1" /><g
     id="g4490" /><g
     id="g4492" /><g
     id="g4494" /><g
     id="g4496" /><g
     id="g4498" /><g
     id="g4500" /><g
     id="g4502" /><g
     id="g4504" /><g
     id="g4506" /><g
     id="g4508" /><g
     id="g4510" /><g
     id="g4512" /><g
     id="g4514" /><g
     id="g4516" /><g
     id="g4518" /><text
     xml:space="preserve"
     style="font-style:normal;font-weight:bold;font-size:12.5px;line-height:120.00000477%;font-family:'TeX Gyre Termes';letter-spacing:0px;word-spacing:0px;fill:#000000;fill-opacity:1;stroke:none;stroke-width:1px;stroke-linecap:butt;stroke-linejoin:miter;stroke-opacity:1;-inkscape-font-specification:'TeX Gyre Termes Bold';font-stretch:normal;font-variant:normal;"
     x="21.784746"
     y="30.26384"
     id="text5334"
     sodipodi:linespacing="120%"><tspan
       sodipodi:role="line"
       id="tspan5336"
       x="21.784746"
       y="30.26384" /></text>
<g
     id="g4484"
     transform="matrix(0.67977014,-0.17698006,0.18596297,0.71427297,4.3476228,10.197026)"><g
       id="g4486"><path
         d="m 55.375,27.688 c 0,-3.653 -2.973,-6.625 -6.625,-6.625 -1.305,0 -2.561,0.386 -3.625,1.083 l 0,-8.896 c 0,-1.654 -1.346,-3 -3,-3 l -10.62,0 c -0.438,0 -0.823,0.284 -0.955,0.702 -0.13,0.417 0.025,0.871 0.386,1.12 1.25,0.867 1.996,2.289 1.996,3.803 0,2.55 -2.074,4.625 -4.625,4.625 -2.551,0 -4.625,-2.075 -4.625,-4.625 0,-1.515 0.747,-2.937 1.997,-3.803 0.36,-0.249 0.516,-0.703 0.385,-1.12 -0.131,-0.417 -0.517,-0.702 -0.955,-0.702 l -11.859,0 c -1.654,0 -3,1.346 -3,3 l 0,8.896 C 9.186,21.449 7.93,21.063 6.625,21.063 2.972,21.062 0,24.035 0,27.688 c 0,3.653 2.972,6.625 6.625,6.625 1.305,0 2.561,-0.385 3.625,-1.082 l 0,8.896 c 0,1.653 1.346,3 3,3 l 11.861,0 c 0.003,0 0.007,0 0.01,0 0.55,-0.021 1.01,-0.444 1.01,-1 0,-0.392 -0.225,-0.729 -0.552,-0.894 -1.189,-0.873 -1.896,-2.258 -1.896,-3.731 0,-2.55 2.075,-4.625 4.625,-4.625 2.549,0 4.625,2.075 4.625,4.625 0,1.515 -0.748,2.937 -1.998,3.804 -0.359,0.248 -0.516,0.702 -0.385,1.119 0.131,0.417 0.518,0.702 0.955,0.702 l 10.62,0 c 1.653,0 3,-1.347 3,-3 l 0,-8.897 c 1.063,0.697 2.319,1.082 3.625,1.082 3.652,0 6.625,-2.972 6.625,-6.624 z m -10.428,2.628 c -0.25,-0.36 -0.703,-0.518 -1.12,-0.385 -0.417,0.131 -0.702,0.516 -0.702,0.955 l 0,11.239 c 0,0.552 -0.449,1 -1,1 l -8.275,0 c 0.697,-1.063 1.084,-2.319 1.084,-3.625 0,-3.653 -2.973,-6.625 -6.625,-6.625 -3.653,0 -6.625,2.972 -6.625,6.625 0,1.306 0.386,2.562 1.083,3.625 l -9.517,0 c -0.551,0 -1,-0.448 -1,-1 l 0,-11.239 c 0,-0.439 -0.284,-0.824 -0.702,-0.955 -0.419,-0.132 -0.872,0.024 -1.12,0.385 -0.867,1.25 -2.289,1.996 -3.803,1.996 C 4.075,32.312 2,30.238 2,27.688 c 0,-2.55 2.075,-4.625 4.625,-4.625 1.515,0 2.937,0.747 3.803,1.997 0.248,0.36 0.701,0.515 1.12,0.385 0.417,-0.131 0.702,-0.517 0.702,-0.955 l 0,-11.24 c 0,-0.551 0.449,-1 1,-1 l 9.516,0 c -0.697,1.064 -1.083,2.32 -1.083,3.625 0,3.653 2.972,6.625 6.625,6.625 3.653,0 6.625,-2.972 6.625,-6.625 0,-1.305 -0.387,-2.561 -1.084,-3.625 l 8.275,0 c 0.551,0 1,0.449 1,1 l 0,11.24 c 0,0.438 0.284,0.824 0.702,0.955 0.417,0.129 0.872,-0.025 1.12,-0.385 0.867,-1.25 2.289,-1.997 3.803,-1.997 2.55,0 4.625,2.075 4.625,4.625 0,2.55 -2.075,4.625 -4.625,4.625 -1.515,-0.001 -2.937,-0.747 -3.802,-1.997 z"
         id="path4488"
         inkscape:connector-curvature="0" /></g></g><text
     xml:space="preserve"
     style="font-style:normal;font-variant:normal;font-weight:bold;font-stretch:normal;font-size:6.24329615px;line-height:120.00000477%;font-family:sans-serif;-inkscape-font-specification:'sans-serif Bold';text-align:center;letter-spacing:0px;word-spacing:0px;text-anchor:middle;fill:#000000;fill-opacity:1;stroke:none;stroke-width:1px;stroke-linecap:butt;stroke-linejoin:miter;stroke-opacity:1"
     x="35.983513"
     y="21.788219"
     id="text5338"
     sodipodi:linespacing="120%"
     transform="matrix(0.79562314,0.00842622,-0.01330973,1.2567355,0,0)"><tspan
       sodipodi:role="line"
       id="tspan5340"
       x="35.983513"
       y="21.788219"
       style="font-style:normal;font-variant:normal;font-weight:bold;font-stretch:normal;font-size:6.24329615px;font-family:Baskerville;-inkscape-font-specification:'Baskerville Bold'">HiDRUS</tspan></text>
</svg>