<?xml version="1.0" encoding="UTF-8" standalone="no"?>
<!-- Generator: Adobe Illustrator 16.0.0, SVG Export Plug-In . SVG Version: 6.00 Build 0)  -->

<svg
   xmlns:dc="http://purl.org/dc/elements/1.1/"
   xmlns:cc="http://creativecommons.org/ns#"
   xmlns:rdf="http://www.w3.org/1999/02/22-rdf-syntax-ns#"
   xmlns:svg="http://www.w3.org/2000/svg"
   xmlns="http://www.w3.org/2000/svg"
   xmlns:sodipodi="http://sodipodi.sourceforge.net/DTD/sodipodi-0.dtd"
   xmlns:inkscape="http://www.inkscape.org/namespaces/inkscape"
   version="1.1"
   id="Capa_1"
   x="0px"
   y="0px"
   width="55.375px"
   height="55.375px"
   viewBox="0 0 55.375 55.375"
   style="enable-background:new 0 0 55.375 55.375;"
   xml:space="preserve"
   inkscape:version="0.91 r13725"
   sodipodi:docname="hidrus-logo1.svg"><metadata
     id="metadata4524"><rdf:RDF><cc:Work
         rdf:about=""><dc:format>image/svg+xml</dc:format><dc:type
           rdf:resource="http://purl.org/dc/dcmitype/StillImage" /><dc:title></dc:title></cc:Work></rdf:RDF></metadata><defs
     id="defs4522" /><sodipodi:namedview
     pagecolor="#ffffff"
     bordercolor="#666666"
     borderopacity="1"
     objecttolerance="10"
     gridtolerance="10"
     guidetolerance="10"
     inkscape:pageopacity="0"
     inkscape:pageshadow="2"
     inkscape:window-width="1234"
     inkscape:window-height="755"
     id="namedview4520"
     showgrid="false"
     inkscape:zoom="15.331828"
     inkscape:cx="30.005646"
     inkscape:cy="30.013982"
     inkscape:window-x="46"
     inkscape:window-y="0"
     inkscape:window-maximized="1"
     inkscape:current-layer="Capa_1" /><g
     id="g4490" /><g
     id="g4492" /><g
     id="g4494" /><g
     id="g4496" /><g
     id="g4498" /><g
     id="g4500" /><g
     id="g4502" /><g
     id="g4504" /><g
     id="g4506" /><g
     id="g4508" /><g
     id="g4510" /><g
     id="g4512" /><g
     id="g4514" /><g
     id="g4516" /><g
     id="g4518" /><text
     xml:space="preserve"
     style="font-style:normal;font-weight:bold;font-size:12.5px;line-height:120.00000477%;font-family:'TeX Gyre Termes';letter-spacing:0px;word-spacing:0px;fill:#000000;fill-opacity:1;stroke:none;stroke-width:1px;stroke-linecap:butt;stroke-linejoin:miter;stroke-opacity:1;-inkscape-font-specification:'TeX Gyre Termes Bold';font-stretch:normal;font-variant:normal;"
     x="21.784746"
     y="30.26384"
     id="text5334"
     sodipodi:linespacing="120%"><tspan
       sodipodi:role="line"
       id="tspan5336"
       x="21.784746"
       y="30.26384" /></text>
<g
     id="g3564"
     transform="matrix(0.99989843,0.01425246,-0.01425246,0.99989843,0.36025237,-0.40102934)"><path
       inkscape:connector-curvature="0"
       id="path3394"
       d="m 20.893503,38.554146 c -0.08102,-0.045 -0.188203,-0.140189 -0.238176,-0.211535 -0.04997,-0.07135 -0.5672,-1.9633 -1.149393,-4.20434 -0.582194,-2.24104 -1.099214,-4.154835 -1.148934,-4.252879 -0.102995,-0.203095 -0.395721,-0.376141 -0.636287,-0.376141 -0.351503,0 -0.495383,0.136215 -0.795479,0.753097 -0.511685,1.05183 -1.360007,1.706502 -2.424855,1.871325 -1.163294,0.180061 -2.414129,-0.399205 -3.103845,-1.437402 -0.899574,-1.354085 -0.799938,-3.068688 0.245916,-4.23193 1.030288,-1.145928 2.744857,-1.355143 4.009926,-0.489297 0.193189,0.132223 0.427994,0.291615 0.52179,0.354204 0.399873,0.26683 1.000521,0.02626 1.087132,-0.43542 0.0303,-0.161499 -0.233076,-1.26609 -1.044912,-4.382369 -0.762965,-2.928685 -1.07438,-4.22632 -1.04826,-4.367991 0.07399,-0.401322 0.130955,-0.422331 3.587668,-1.323249 1.792448,-0.467163 3.26419,-0.843509 3.270536,-0.836324 0.0063,0.0072 -0.03212,0.218517 -0.08548,0.469629 -0.117562,0.553263 -0.08064,1.698978 0.07357,2.282832 0.05685,0.215239 0.23428,0.6555 0.394292,0.978357 0.492319,0.993351 1.239626,1.739178 2.219416,2.215023 1.298982,0.630864 2.648325,0.655105 3.913428,0.07031 1.473067,-0.68093 2.435508,-2.056532 2.656007,-3.796189 0.17366,-1.370119 -0.300666,-2.897825 -1.21572,-3.915587 l -0.285448,-0.317486 2.815215,-0.731649 c 1.548368,-0.402407 2.867588,-0.731649 2.931598,-0.731649 0.172515,0 0.487944,0.179387 0.563425,0.320425 0.03632,0.06787 0.537524,1.938675 1.113777,4.157342 0.576254,2.218666 1.080716,4.118124 1.121027,4.221018 0.0876,0.223604 0.404567,0.431964 0.657635,0.432302 0.247576,3.26e-4 0.524,-0.151745 0.611858,-0.336616 0.03981,-0.08377 0.152265,-0.323672 0.249893,-0.533103 0.09763,-0.209432 0.353654,-0.56909 0.568947,-0.79924 1.225436,-1.309994 3.207264,-1.309968 4.512874,6.1e-5 1.761701,1.767663 1.126786,4.787243 -1.174433,5.58547 -0.44561,0.15457 -1.271358,0.183983 -1.726263,0.06149 -0.358787,-0.09661 -0.960752,-0.397629 -1.21013,-0.605134 -0.280003,-0.23299 -0.448507,-0.307165 -0.69779,-0.307165 -0.290571,0 -0.545567,0.204237 -0.635477,0.508983 -0.06479,0.219606 0.02565,0.612515 1.014808,4.408973 0.788789,3.027415 1.07526,4.224794 1.046917,4.375869 -0.0762,0.406154 -0.148033,0.433767 -3.186989,1.225011 -1.897215,0.493972 -2.845131,0.714204 -2.822723,0.655811 0.200239,-0.521817 0.202544,-1.99124 0.0043,-2.728166 -0.255556,-0.94987 -0.953016,-2.012089 -1.713527,-2.609666 -1.721565,-1.352736 -4.086146,-1.373746 -5.71997,-0.05082 -0.776829,0.629004 -1.400344,1.614856 -1.641411,2.595266 -0.153758,0.625331 -0.15266,1.805846 0.0022,2.413281 0.162025,0.635351 0.62058,1.553255 1.020424,2.042615 0.185158,0.226612 0.326389,0.419188 0.313847,0.427948 -0.06811,0.04757 -6.435753,1.671543 -6.545185,1.669254 -0.07175,-0.0015 -0.196739,-0.03954 -0.277763,-0.08454 l 3e-6,0 z M 37.647738,27.763118 c 0.21355,-0.122492 0.495611,-0.551412 0.588442,-0.894822 0.03888,-0.143827 0.05775,-0.487025 0.04194,-0.762662 -0.04105,-0.715453 -0.211172,-1.012045 -0.900605,-1.570131 -0.62371,-0.504884 -0.710023,-0.62541 -0.713283,-0.996022 -0.0045,-0.515021 0.366299,-0.724613 0.681089,-0.38495 0.15731,0.16974 0.36018,0.669644 0.36018,0.887541 0,0.08197 0.04859,0.118828 0.156625,0.118828 0.153614,0 0.157533,-0.01452 0.203799,-0.754991 0.03054,-0.488695 0.02374,-0.778419 -0.01925,-0.821414 -0.110409,-0.110409 -0.306982,-0.03137 -0.33032,0.132823 l -0.02176,0.153067 -0.185263,-0.177493 c -0.249665,-0.239194 -0.66946,-0.285292 -0.956413,-0.105025 -0.113758,0.07146 -0.288763,0.269738 -0.3889,0.44061 -0.155159,0.26476 -0.18595,0.399435 -0.208334,0.911242 -0.03722,0.851117 0.106776,1.151934 0.854722,1.785506 0.304117,0.257612 0.585899,0.54072 0.626179,0.629128 0.192756,0.423052 -0.01441,1.002513 -0.358413,1.002513 -0.32107,0 -0.68404,-0.556054 -0.777003,-1.190334 -0.04215,-0.287559 -0.05893,-0.309813 -0.233673,-0.309813 l -0.188266,0 0,0.917465 0,0.917465 0.179365,-0.02064 c 0.131298,-0.01511 0.185206,-0.06191 0.20116,-0.174659 0.02155,-0.152314 0.02372,-0.151738 0.195672,0.05202 0.307855,0.364809 0.781854,0.450179 1.192309,0.214743 z m -3.352697,-0.02159 c 0.155794,-0.07542 0.355264,-0.231525 0.443268,-0.346904 0.331092,-0.434083 0.373214,-0.675015 0.418165,-2.391807 0.03582,-1.367967 0.05871,-1.629482 0.155598,-1.777349 0.06248,-0.09536 0.15695,-0.173376 0.209932,-0.173376 0.06891,0 0.09633,-0.07428 0.09633,-0.260896 l 0,-0.260895 -0.652238,0 -0.652238,0 0.0025,0.211978 c 0.002,0.165253 0.04779,0.24073 0.207926,0.342425 0.113017,0.07177 0.23125,0.218463 0.262851,0.326119 0.07431,0.25314 0.0036,2.858812 -0.0864,3.183136 -0.09608,0.346303 -0.3694,0.629031 -0.651393,0.673806 -0.187569,0.02978 -0.270886,0.004 -0.435907,-0.134847 -0.347151,-0.292109 -0.377553,-0.48252 -0.35955,-2.251871 0.0089,-0.877411 0.0333,-1.649073 0.05416,-1.714804 0.02086,-0.06573 0.123622,-0.136649 0.228357,-0.157596 0.165281,-0.03306 0.190427,-0.06715 0.190427,-0.258215 l 0,-0.220131 -0.913134,0 -0.913133,0 0,0.228284 c 0,0.179838 0.02599,0.228283 0.122462,0.228283 0.266706,0 0.285249,0.120632 0.293547,1.909661 l 0.0079,1.713088 0.212559,0.431726 c 0.370118,0.751743 1.073072,1.031727 1.757947,0.700185 z m -4.318563,-0.253325 c 0,-0.175835 -0.02958,-0.232881 -0.130447,-0.251608 -0.270732,-0.05026 -0.293507,-0.12506 -0.293507,-0.963911 l 0,-0.807312 0.161384,0 c 0.200554,0 0.270296,0.128806 0.651352,1.202979 0.413222,1.164846 0.338402,1.079854 0.950601,1.079854 l 0.519495,0 0,-0.200689 c 0,-0.131759 -0.06161,-0.262589 -0.179365,-0.380914 -0.09865,-0.09912 -0.305541,-0.485762 -0.459757,-0.859198 -0.154215,-0.373435 -0.33214,-0.776426 -0.395389,-0.895536 l -0.114998,-0.216564 0.242368,-0.242367 c 0.296387,-0.296387 0.411401,-0.679817 0.367971,-1.226735 -0.03928,-0.494686 -0.255815,-0.910822 -0.569634,-1.094731 -0.202345,-0.118581 -0.359827,-0.136235 -1.386006,-0.155369 l -1.157722,-0.02159 0.0014,0.21726 c 0.0012,0.180507 0.03703,0.233809 0.211977,0.315095 l 0.210566,0.09784 0,1.963093 c 0,2.086761 -0.0087,2.14746 -0.31455,2.191008 -0.106342,0.01514 -0.147047,0.07209 -0.162045,0.2267 -0.02559,0.263846 0.0064,0.27191 1.030997,0.259758 l 0.815298,-0.0097 0,-0.22739 2e-6,0 z m -7.61094,-0.08746 c 0.01715,-0.202946 2.74e-4,-0.239547 -0.110444,-0.239547 -0.288296,0 -0.333754,-0.204919 -0.333754,-1.504514 0,-0.668026 0.01938,-1.531409 0.04308,-1.918629 0.04197,-0.685905 0.04783,-0.706742 0.22787,-0.809137 0.143245,-0.08147 0.184887,-0.152764 0.185207,-0.31708 l 4.12e-4,-0.211977 -0.880521,0 -0.880521,0 0,0.213983 c 0,0.177865 0.03303,0.226451 0.195671,0.287842 l 0.195672,0.07386 0,0.820963 0,0.820963 -0.619626,0 -0.619627,0 0,-0.778027 c 0,-0.801463 0.05507,-0.983016 0.298166,-0.983016 0.06225,0 0.09318,-0.07268 0.09318,-0.218991 l 0,-0.218992 -0.40091,-0.0419 c -0.220501,-0.02305 -0.616736,-0.0419 -0.880521,-0.0419 l -0.479611,0 0,0.260895 c 0,0.211741 0.02307,0.260895 0.122461,0.260895 0.289224,0 0.302865,0.103576 0.278374,2.113712 -0.01272,1.043653 -0.04934,1.946865 -0.08139,2.007138 -0.03205,0.06027 -0.124371,0.118974 -0.205165,0.130448 -0.118042,0.01676 -0.150872,0.0689 -0.16714,0.26545 l -0.02024,0.244589 0.91707,0 0.91707,0 0,-0.221212 c 0,-0.182387 -0.02902,-0.228497 -0.165366,-0.262717 -0.239403,-0.06009 -0.2912,-0.270603 -0.2912,-1.183524 l 0,-0.811051 0.652238,0 0.652238,0 0,0.842575 c 0,0.463416 -0.01823,0.890087 -0.04052,0.948157 -0.02228,0.05807 -0.125011,0.149277 -0.228283,0.202681 -0.142377,0.07363 -0.187768,0.143525 -0.187768,0.289146 l 0,0.192048 0.831603,0.01964 c 0.457382,0.0108 0.860954,0.01675 0.896828,0.01321 0.03587,-0.0035 0.07433,-0.114222 0.08547,-0.245974 z m 1.695123,0.0496 C 24.076387,27.28941 24.047702,27.2355 23.913907,27.17454 l -0.166301,-0.07577 0,-1.371098 c 0,-0.902507 -0.0231,-1.371098 -0.06758,-1.371098 -0.03717,0 -0.316003,0.0623 -0.619626,0.138456 l -0.552042,0.138456 0,0.220275 c 0,0.147422 0.03082,0.220274 0.09318,0.220274 0.242791,0 0.298166,0.181774 0.298166,0.97877 0,0.858517 -0.05845,1.108392 -0.259281,1.108392 -0.110763,0 -0.132062,0.04241 -0.132062,0.262965 l 0,0.262965 0.766379,-0.01838 0.76638,-0.01838 0.01955,-0.200031 z m 2.458869,0.160637 c 0.589524,-0.148444 1.097586,-0.816513 1.276551,-1.678582 0.09804,-0.472244 0.04365,-1.710621 -0.094,-2.140462 -0.152962,-0.47764 -0.490564,-0.936174 -0.85686,-1.163794 -0.313645,-0.194902 -0.319326,-0.195757 -1.445352,-0.217365 l -1.13047,-0.02169 0,0.266283 c 0,0.212938 0.02352,0.266283 0.117403,0.266283 0.262429,0 0.27394,0.08533 0.27394,2.030736 0,1.059906 -0.02764,1.94689 -0.06361,2.041505 -0.0451,0.118618 -0.111532,0.167306 -0.228284,0.167306 -0.148637,0 -0.164673,0.02541 -0.164673,0.260895 l 0,0.260895 1.014698,0 c 0.558084,0 1.14338,-0.0324 1.300659,-0.07201 z M 23.616687,23.607 c 0.217333,-0.23134 0.252999,-0.769437 0.07029,-1.060388 -0.287717,-0.458154 -0.786476,-0.146098 -0.787031,0.492418 -5.22e-4,0.619973 0.382637,0.923614 0.716746,0.56797 z"
       style="fill:#0044aa;stroke-width:2.79999995;stroke-miterlimit:4;stroke-dasharray:none" /><path
       inkscape:connector-curvature="0"
       id="path3396"
       d="m 25.681817,27.041917 c -0.09323,-0.103015 -0.107899,-0.305319 -0.107607,-1.483841 1.85e-4,-0.75051 0.01929,-1.650733 0.04245,-2.000496 0.04176,-0.630598 0.04353,-0.63593 0.21164,-0.635688 0.301551,4.34e-4 0.589302,0.236413 0.77724,0.637401 0.168313,0.359114 0.174973,0.415529 0.174973,1.482128 0,0.904207 -0.02191,1.171634 -0.118744,1.449304 -0.197714,0.566947 -0.706637,0.853201 -0.979951,0.551192 z"
       style="fill:#0044aa;stroke-width:2.79999995;stroke-miterlimit:4;stroke-dasharray:none" /><path
       inkscape:connector-curvature="0"
       id="path3398"
       d="m 29.552524,23.924083 0,-0.954279 0.244589,0.03894 c 0.147093,0.02342 0.303087,0.106269 0.391343,0.207842 0.126564,0.145663 0.14672,0.242426 0.146509,0.703358 -3.24e-4,0.711214 -0.134597,0.958414 -0.520587,0.958414 l -0.261854,0 0,-0.954279 z"
       style="fill:#0044aa;stroke-width:2.79999995;stroke-miterlimit:4;stroke-dasharray:none" /></g></svg>